<?xml version="1.0" encoding="UTF-8" standalone="no"?>
<!-- Created with Inkscape (http://www.inkscape.org/) -->

<svg
   xmlns:dc="http://purl.org/dc/elements/1.1/"
   xmlns:cc="http://creativecommons.org/ns#"
   xmlns:rdf="http://www.w3.org/1999/02/22-rdf-syntax-ns#"
   xmlns:svg="http://www.w3.org/2000/svg"
   xmlns="http://www.w3.org/2000/svg"
   xmlns:sodipodi="http://sodipodi.sourceforge.net/DTD/sodipodi-0.dtd"
   xmlns:inkscape="http://www.inkscape.org/namespaces/inkscape"
   width="480"
   height="480"
   viewBox="0 0 480 480.00001"
   id="svg3336"
   version="1.1"
   inkscape:version="0.91 r13725"
   sodipodi:docname="mnemonic.svg"
   inkscape:export-filename="/home/rafal/Android/AndroidStudioProjects/Mnemonic/app/src/main/res/drawable-xxxhdpi/ic_launcher.png"
   inkscape:export-xdpi="35.35099"
   inkscape:export-ydpi="35.35099">
  <defs
     id="defs3338" />
  <sodipodi:namedview
     id="base"
     pagecolor="#000000"
     bordercolor="#666666"
     borderopacity="1.0"
     inkscape:pageopacity="0"
     inkscape:pageshadow="2"
     inkscape:zoom="0.24748737"
     inkscape:cx="-266.3111"
     inkscape:cy="-294.16657"
     inkscape:document-units="px"
     inkscape:current-layer="svg3336"
     showgrid="false"
     units="px"
     inkscape:window-width="1440"
     inkscape:window-height="844"
     inkscape:window-x="0"
     inkscape:window-y="0"
     inkscape:window-maximized="1"
     inkscape:snap-global="true"
     showborder="false" />
  <metadata
     id="metadata3341">
    <rdf:RDF>
      <cc:Work
         rdf:about="">
        <dc:format>image/svg+xml</dc:format>
        <dc:type
           rdf:resource="http://purl.org/dc/dcmitype/StillImage" />
        <dc:title />
      </cc:Work>
    </rdf:RDF>
  </metadata>
  <g
     inkscape:label="Layer 1"
     inkscape:groupmode="layer"
     id="layer1"
     transform="translate(0,-572.36209)">
    <circle
       style="fill:#ffffff;fill-rule:evenodd;stroke:#80cbc4;stroke-width:10;stroke-linecap:butt;stroke-linejoin:miter;stroke-opacity:0;fill-opacity:0;stroke-miterlimit:4;stroke-dasharray:none"
       id="path3344"
       cx="239.40616"
       cy="812.95593"
       r="239.40616" />
    <circle
       style="fill:#ffffff;fill-opacity:0;stroke:#80cbc4;stroke-width:20;stroke-miterlimit:4;stroke-dasharray:none;stroke-opacity:1"
       id="path4181"
       cx="239.91122"
       cy="812.45087"
       r="229.80971" />
  </g>
  <path
     id="path4254"
     d="m 345.92078,123.86771 q 0,2.57502 -3.04316,5.61822 l -42.48771,41.43425 10.06595,58.52297 q 0.11705,0.81935 0.11705,2.34094 0,2.45797 -1.22897,4.15512 -1.22903,1.69718 -3.56993,1.69718 -2.22382,0 -4.68183,-1.40456 l -52.55364,-27.62285 -52.55363,27.62285 q -2.575,1.40456 -4.68183,1.40456 -2.45796,0 -3.68694,-1.69718 -1.22899,-1.69715 -1.22899,-4.15512 0,-0.70228 0.2341,-2.34094 l 10.06595,-58.52297 -42.60473,-41.43425 q -2.92614,-3.16024 -2.92614,-5.61822 0,-4.3307 6.55458,-5.3841 l 58.75705,-8.54437 26.33533,-53.255901 q 2.2239,-4.798886 5.73525,-4.798886 3.51137,0 5.73527,4.798886 l 26.33534,53.255901 58.75704,8.54437 q 6.55459,1.0534 6.55459,5.3841 z"
     inkscape:connector-curvature="0"
     style="fill:#80cbc4;fill-opacity:1" />
  <path
     id="path4433"
     d="m 329.5146,332.75649 q 0,16.02352 -11.05074,29.60669 -11.05066,13.58315 -30.02109,21.45678 -18.97035,7.87364 -41.44016,7.87364 -6.44621,0 -13.35289,-0.73673 -18.23371,16.11563 -42.36109,22.28561 -4.51235,1.28924 -10.49816,2.02597 -1.56551,0.18417 -2.80875,-0.82882 -1.24321,-1.01298 -1.6115,-2.67058 l 0,-0.0921 q -0.2763,-0.36835 -0.046,-1.10507 0.23019,-0.7367 0.18414,-0.92089 -0.046,-0.18418 0.41442,-0.87485 l 0.55256,-0.82881 0.6446,-0.78274 0.7367,-0.82881 q 0.6446,-0.73672 2.85479,-3.17708 2.21013,-2.44036 3.17708,-3.4994 0.96691,-1.05903 2.85472,-3.63752 1.88789,-2.57849 2.99296,-4.69655 1.10505,-2.11806 2.48637,-5.43326 1.38136,-3.31522 2.39432,-6.99878 -14.45801,-8.19593 -22.79205,-20.25963 -8.33409,-12.06371 -8.33409,-25.87707 0,-11.97162 6.53832,-22.88419 6.5383,-10.91257 17.58905,-18.83225 11.05072,-7.91966 26.33755,-12.57018 15.28676,-4.6505 32.047,-4.6505 22.46981,0 41.44016,7.87364 18.97043,7.87361 30.02109,21.45678 11.05057,13.58317 11.05057,29.6067 z"
     inkscape:connector-curvature="0"
     style="fill:#80cbc4;fill-opacity:1" />
</svg>
