<?xml version="1.0" encoding="UTF-8" standalone="no"?>
<!-- Created with Inkscape (http://www.inkscape.org/) -->

<svg
   xmlns:dc="http://purl.org/dc/elements/1.1/"
   xmlns:cc="http://creativecommons.org/ns#"
   xmlns:rdf="http://www.w3.org/1999/02/22-rdf-syntax-ns#"
   xmlns:svg="http://www.w3.org/2000/svg"
   xmlns="http://www.w3.org/2000/svg"
   xmlns:sodipodi="http://sodipodi.sourceforge.net/DTD/sodipodi-0.dtd"
   xmlns:inkscape="http://www.inkscape.org/namespaces/inkscape"
   width="480"
   height="480"
   viewBox="0 0 480 480.00001"
   id="svg3336"
   version="1.1"
   inkscape:version="0.91 r13725"
   sodipodi:docname="ic_launcher.svg"
   inkscape:export-filename="/home/rafal/Android/AndroidStudioProjects/Mnemonic/app/src/main/res/drawable-xxxhdpi/ic_launcher.png"
   inkscape:export-xdpi="35.35099"
   inkscape:export-ydpi="35.35099">
  <defs
     id="defs3338" />
  <sodipodi:namedview
     id="base"
     pagecolor="#000000"
     bordercolor="#666666"
     borderopacity="1.0"
     inkscape:pageopacity="0"
     inkscape:pageshadow="2"
     inkscape:zoom="1.4"
     inkscape:cx="275.23855"
     inkscape:cy="273.84676"
     inkscape:document-units="px"
     inkscape:current-layer="svg3336"
     showgrid="false"
     units="px"
     inkscape:window-width="1440"
     inkscape:window-height="844"
     inkscape:window-x="0"
     inkscape:window-y="0"
     inkscape:window-maximized="1"
     inkscape:snap-global="true"
     showborder="false" />
  <metadata
     id="metadata3341">
    <rdf:RDF>
      <cc:Work
         rdf:about="">
        <dc:format>image/svg+xml</dc:format>
        <dc:type
           rdf:resource="http://purl.org/dc/dcmitype/StillImage" />
        <dc:title />
      </cc:Work>
    </rdf:RDF>
  </metadata>
  <g
     inkscape:label="Layer 1"
     inkscape:groupmode="layer"
     id="layer1"
     transform="translate(0,-572.36209)">
    <circle
       style="fill:#ffffff;fill-rule:evenodd;stroke:#80cbc4;stroke-width:10;stroke-linecap:butt;stroke-linejoin:miter;stroke-opacity:0;fill-opacity:0;stroke-miterlimit:4;stroke-dasharray:none"
       id="path3344"
       cx="239.40616"
       cy="812.95593"
       r="239.40616" />
    <circle
       style="fill:#ffffff;fill-opacity:0;stroke:#80cbc4;stroke-width:20;stroke-miterlimit:4;stroke-dasharray:none;stroke-opacity:1"
       id="path4181"
       cx="239.91122"
       cy="812.45087"
       r="229.80971" />
  </g>
  <g
     style="fill:#80cbc4;fill-opacity:1"
     id="g4279"
     transform="translate(217.42857,110.85714)">
    <path
       id="path4267"
       d="M 0,0 24,0 24,24 0,24 Z"
       inkscape:connector-curvature="0"
       style="fill:#80cbc4;fill-opacity:1" />
    <path
       id="path4269"
       d="M 24.571425,93.67286 89.019995,132.57143 71.917135,59.258572 128.85715,9.931429 53.875715,3.570001 24.571425,-65.571426 -4.7328646,3.570001 -79.714295,9.931429 l 56.94001,49.327143 -17.10286,73.312858 z"
       inkscape:connector-curvature="0"
       style="fill:#80cbc4;fill-opacity:1" />
    <path
       id="path4271"
       d="M 0,0 24,0 24,24 0,24 Z"
       inkscape:connector-curvature="0"
       style="fill:#80cbc4;fill-opacity:1" />
  </g>
  <g
     style="fill:#ffffff;stroke:none"
     id="g4201"
     transform="matrix(7.7878917,0,0,7.7878917,148.62754,249.37852)">
    <path
       id="path4191"
       d="M 20,2 4,2 C 2.9,2 2.01,2.9 2.01,4 L 2,22 6,18 20,18 c 1.1,0 2,-0.9 2,-2 L 22,4 C 22,2.9 21.1,2 20,2 Z M 6,9 18,9 18,11 6,11 6,9 Z m 8,5 -8,0 0,-2 8,0 0,2 z M 18,8 6,8 6,6 18,6 18,8 Z"
       inkscape:connector-curvature="0"
       style="fill:#80cbc4;fill-opacity:1;stroke:none" />
    <path
       id="path4193"
       d="M 0,0 24,0 24,24 0,24 Z"
       inkscape:connector-curvature="0"
       style="fill:none;stroke:none" />
  </g>
</svg>
